<svg width="73" height="73" viewBox="0 0 73 73" fill="none" xmlns="http://www.w3.org/2000/svg">
<path d="M12.1666 48.6666V60.8333H24.3333V66.9167H6.08331V48.6666H12.1666ZM66.9167 48.6666V66.9167H48.6666V60.8333H60.8333V48.6666H66.9167ZM22.8125 21.2916C22.8125 24.9218 24.2546 28.4033 26.8215 30.9702C29.3884 33.5371 32.8698 34.9791 36.5 34.9791C40.1301 34.9791 43.6116 33.5371 46.1785 30.9702C48.7454 28.4033 50.1875 24.9218 50.1875 21.2916H56.2708C56.2715 24.9094 55.2795 28.458 53.403 31.5509C51.5264 34.6439 48.8371 37.1627 45.628 38.8329L45.625 57.7917H27.375V38.836C24.1649 37.1659 21.4747 34.6468 19.5975 31.5532C17.7203 28.4596 16.7282 24.9102 16.7291 21.2916H22.8125ZM36.5 15.2083C38.5167 15.2083 40.4509 16.0095 41.8769 17.4355C43.303 18.8616 44.1041 20.7957 44.1041 22.8125C44.1041 24.8292 43.303 26.7634 41.8769 28.1894C40.4509 29.6155 38.5167 30.4166 36.5 30.4166C34.4832 30.4166 32.5491 29.6155 31.123 28.1894C29.697 26.7634 28.8958 24.8292 28.8958 22.8125C28.8958 20.7957 29.697 18.8616 31.123 17.4355C32.5491 16.0095 34.4832 15.2083 36.5 15.2083ZM24.3333 6.08331V12.1666L12.1666 12.1636V24.3333H6.08331V6.08331H24.3333ZM66.9167 6.08331V24.3333H60.8333V12.1666H48.6666V6.08331H66.9167Z" fill="#64A71A"/>
</svg>
