<svg width="61" height="61" viewBox="0 0 61 61" fill="none" xmlns="http://www.w3.org/2000/svg">
<path d="M54.1082 29.1931L58.765 37.2626C61.7063 42.3544 59.9604 48.8666 54.8717 51.8049C53.2505 52.7387 51.4163 53.2314 49.5487 53.2314H43.2738V60.8356L28.0655 50.1897L43.2738 39.5439V47.1481H49.5457C50.3457 47.1481 51.1335 46.9352 51.827 46.5367C54.0109 45.2774 54.7561 42.4852 53.4999 40.3043L48.84 32.2348L54.1082 29.1931ZM16.8235 20.1807L18.4355 38.674L11.8534 34.8719L8.71742 40.3043C8.31592 40.9978 8.10604 41.7856 8.10604 42.5856C8.10604 45.1041 10.147 47.1481 12.6685 47.1481H21.9821V53.2314H12.6685C6.789 53.2314 2.02271 48.4651 2.02271 42.5856C2.02271 40.718 2.51546 38.8808 3.44925 37.2626L6.58217 31.8272L0 28.0282L16.8204 20.1807H16.8235ZM36.43 1.42878C38.0482 2.36257 39.3926 3.70699 40.3264 5.32515L43.4593 10.7545L50.0476 6.95245L48.4355 25.4488L31.609 17.6013L38.1942 13.7992L35.0582 8.36682C34.6567 7.67332 34.0819 7.09845 33.3884 6.69695C31.2075 5.4377 28.4153 6.18595 27.156 8.36682L22.4962 16.4364L17.228 13.3947L21.8909 5.32515C24.8291 0.233404 31.3413 -1.51251 36.4331 1.42878H36.43Z" fill="#64A71A"/>
</svg>
