<svg width="73" height="73" viewBox="0 0 73 73" fill="none" xmlns="http://www.w3.org/2000/svg">
<path d="M11.5066 8.59577L36.5 3.04169L61.4934 8.59577C62.1688 8.74592 62.7729 9.12187 63.2059 9.66159C63.6389 10.2013 63.8749 10.8725 63.875 11.5644V41.9416C63.8748 44.9459 63.1329 47.9038 61.7151 50.5526C60.2973 53.2013 58.2475 55.4591 55.7477 57.1256L36.5 69.9584L17.2523 57.1256C14.7529 55.4594 12.7034 53.2021 11.2856 50.5539C9.86788 47.9057 9.12572 44.9485 9.125 41.9446V11.5644C9.12512 10.8725 9.36115 10.2013 9.79413 9.66159C10.2271 9.12187 10.8312 8.74592 11.5066 8.59577ZM15.2083 14.0039V41.9416C15.2084 43.9444 15.7028 45.9162 16.6478 47.6821C17.5928 49.4479 18.9592 50.9532 20.6255 52.0642L36.5 62.6492L52.3745 52.0642C54.0404 50.9535 55.4065 49.4487 56.3514 47.6834C57.2964 45.9181 57.7911 43.9469 57.7917 41.9446V14.0039L36.5 9.2771L15.2083 14.0039ZM33.4583 30.4167V21.2917H39.5417V30.4167H48.6667V36.5H39.5417V45.625H33.4583V36.5H24.3333V30.4167H33.4583Z" fill="#64A71A"/>
</svg>
