<svg width="40" height="40" viewBox="0 0 40 40" fill="none" xmlns="http://www.w3.org/2000/svg">
<path d="M20.0629 5.48389C11.8294 5.48389 5.12871 11.9378 5.12581 19.8694C5.12387 22.4058 5.8129 24.8813 7.11935 27.0616L5 34.5161L12.919 32.5158C15.1218 33.6681 17.5711 34.2691 20.0571 34.2674H20.0629C28.2964 34.2674 34.9971 27.8126 35 19.881C35.0019 16.039 33.4497 12.4226 30.6287 9.70421C27.8087 6.98485 24.0587 5.48485 20.0629 5.48389ZM20.0629 31.8374H20.0581C17.8303 31.8374 15.6452 31.2607 13.7387 30.171L13.2839 29.9116L8.58645 31.0981L9.84064 26.6852L9.54548 26.2332C8.30571 24.3424 7.64574 22.1304 7.64677 19.8694C7.64968 13.2761 13.22 7.91389 20.0677 7.91389C23.3832 7.91485 26.5003 9.16034 28.8452 11.42C31.19 13.6797 32.48 16.6845 32.4781 19.88C32.4752 26.4732 26.9058 31.8374 20.0619 31.8374H20.0629ZM26.8729 22.881C26.4994 22.702 24.6645 21.832 24.3219 21.711C23.9803 21.5919 23.7316 21.53 23.4829 21.89C23.2352 22.25 22.519 23.06 22.3023 23.299C22.0835 23.539 21.8658 23.5681 21.4923 23.389C21.1187 23.209 19.9158 22.8297 18.4913 21.6045C17.3813 20.6523 16.6323 19.4755 16.4145 19.1145C16.1968 18.7555 16.3913 18.561 16.5781 18.382C16.7455 18.2223 16.9516 17.9629 17.1374 17.7529C17.3232 17.5429 17.3852 17.3929 17.511 17.1529C17.6348 16.9139 17.5729 16.7029 17.479 16.5239C17.3852 16.3429 16.64 14.5739 16.3274 13.8549C16.0255 13.1542 15.7177 13.2481 15.4884 13.2365C15.2706 13.2268 15.0229 13.2239 14.7723 13.2239C14.5255 13.2239 14.12 13.3139 13.7774 13.6739C13.4358 14.0339 12.471 14.9029 12.471 16.672C12.471 18.442 13.8084 20.151 13.9952 20.391C14.1819 20.63 16.6274 24.262 20.3716 25.82C21.2619 26.1887 21.9568 26.4103 22.4997 26.5768C23.3939 26.8507 24.2077 26.811 24.8503 26.719C25.5664 26.6155 27.0587 25.85 27.3684 25.011C27.68 24.1719 27.68 23.452 27.5871 23.302C27.4961 23.152 27.2464 23.062 26.8729 22.881Z" fill="white"/>
</svg>
